# xmcd
#
# Track frame offsets: 
#        150
#        15664
#        32859
#        51973
#        69010
#        93794
#        111103
#        128796
#        149622
#        168524
#        186682
#        208646
#        229949
#
# Disc length: 3280 seconds
#
# Revision: 0
# Processed by: cddbd v1.5.2PL0 Copyright (c) Steve Scherf et al.
# Submitted via: ExactAudioCopyFreeDBPlugin 1.0
#
DISCID=b90cce0d
DTITLE=Sannie Fox - Serpente Masjien
DYEAR=2015
DGENRE=Blues
TTITLE0=Get Gone
TTITLE1=Hip Heretic
TTITLE2=Bottle In A Bag
TTITLE3=Hang High
TTITLE4=Freedom
TTITLE5=No Good
TTITLE6=No Bird
TTITLE7=The Dream
TTITLE8=Shadows Of The Deep
TTITLE9=Hallelan
TTITLE10=Killer
TTITLE11=Sea Skull
TTITLE12=Call
EXTD=
EXTT0=
EXTT1=
EXTT2=
EXTT3=
EXTT4=
EXTT5=
EXTT6=
EXTT7=
EXTT8=
EXTT9=
EXTT10=
EXTT11=
EXTT12=
PLAYORDER=
